<svg width="94" height="82" viewBox="0 0 94 82" fill="none" xmlns="http://www.w3.org/2000/svg">
<circle cx="33.5" cy="25.5" r="25.5" fill="white"/>
<path d="M28.2475 41C27.3914 41 26.5704 40.6181 25.965 39.9383C25.3597 39.2584 25.0196 38.3364 25.0196 37.375C25.0196 36.4136 25.3597 35.4916 25.965 34.8117C26.5704 34.1319 27.3914 33.75 28.2475 33.75C29.1035 33.75 29.9246 34.1319 30.5299 34.8117C31.1352 35.4916 31.4753 36.4136 31.4753 37.375C31.4753 38.3364 31.1352 39.2584 30.5299 39.9383C29.9246 40.6181 29.1035 41 28.2475 41ZM39.545 41C38.6889 41 37.8679 40.6181 37.2625 39.9383C36.6572 39.2584 36.3171 38.3364 36.3171 37.375C36.3171 36.4136 36.6572 35.4916 37.2625 34.8117C37.8679 34.1319 38.6889 33.75 39.545 33.75C40.4011 33.75 41.2221 34.1319 41.8274 34.8117C42.4328 35.4916 42.7728 36.4136 42.7728 37.375C42.7728 38.3364 42.4328 39.2584 41.8274 39.9383C41.2221 40.6181 40.4011 41 39.545 41ZM18.5025 15.4854C18.0997 15.4708 17.7176 15.2808 17.4372 14.9556C17.1568 14.6304 17 14.1954 17 13.7427C17 13.29 17.1568 12.8551 17.4372 12.5298C17.7176 12.2046 18.0997 12.0146 18.5025 12H20.3602C21.8159 12 23.0748 13.1346 23.3911 14.7296L25.4134 24.9557C25.7297 26.5507 26.9886 27.6854 28.4444 27.6854H40.5682L42.8955 17.2273H27.8133C27.4142 17.2068 27.0375 17.0144 26.7615 16.6899C26.4855 16.3655 26.3315 15.9341 26.3315 15.4854C26.3315 15.0368 26.4855 14.6054 26.7615 14.2809C27.0375 13.9565 27.4142 13.7641 27.8133 13.7436H42.8955C43.3673 13.7435 43.8329 13.8641 44.257 14.0964C44.681 14.3287 45.0524 14.6665 45.3427 15.0841C45.6331 15.5018 45.8348 15.9882 45.9326 16.5066C46.0304 17.0249 46.0217 17.5615 45.9071 18.0755L43.5798 28.53C43.412 29.2844 43.0245 29.954 42.4788 30.4326C41.9331 30.9111 41.2606 31.1709 40.5682 31.1708H28.4444C27.0318 31.171 25.6615 30.6302 24.5597 29.6376C23.4578 28.6451 22.6904 27.2601 22.3841 25.7116L20.3602 15.4854H18.5025Z" fill="#14676B"/>
<path d="M14.186 59.298C14.41 59.998 14.6293 60.7073 14.844 61.426C15.068 62.1353 15.2827 62.882 15.488 63.666C15.7027 64.45 15.9127 65.2807 16.118 66.158C16.3327 67.0353 16.5473 67.9827 16.762 69H15.502C15.4273 68.58 15.348 68.1647 15.264 67.754C15.1893 67.3433 15.11 66.9327 15.026 66.522H11.974C11.8807 66.9327 11.7967 67.3433 11.722 67.754C11.6473 68.1647 11.5727 68.58 11.498 69H10.28C10.4853 67.9827 10.6953 67.0353 10.91 66.158C11.1247 65.2807 11.3347 64.45 11.54 63.666C11.7547 62.882 11.9693 62.1353 12.184 61.426C12.408 60.7073 12.632 59.998 12.856 59.298H14.186ZM13.5 60.726C13.2667 61.5007 13.0427 62.28 12.828 63.064C12.6133 63.848 12.408 64.6507 12.212 65.472H14.774C14.5873 64.6507 14.3867 63.848 14.172 63.064C13.9573 62.28 13.7333 61.5007 13.5 60.726ZM19.323 67.894C19.5937 68.0433 19.883 68.118 20.191 68.118C20.4243 68.118 20.6297 68.0713 20.807 67.978C20.9843 67.8847 21.1337 67.7307 21.255 67.516C21.3857 67.3013 21.4837 67.0167 21.549 66.662C21.6143 66.3073 21.647 65.8687 21.647 65.346C21.647 64.338 21.5163 63.6193 21.255 63.19C21.003 62.7513 20.597 62.532 20.037 62.532C19.9343 62.532 19.8223 62.5413 19.701 62.56C19.5797 62.5693 19.4537 62.5927 19.323 62.63V67.894ZM19.323 71.59H18.119V61.846C18.3803 61.734 18.6743 61.6453 19.001 61.58C19.337 61.5053 19.6777 61.468 20.023 61.468C20.5363 61.468 20.975 61.5567 21.339 61.734C21.7123 61.9113 22.011 62.168 22.235 62.504C22.4683 62.8307 22.6363 63.2367 22.739 63.722C22.851 64.198 22.907 64.744 22.907 65.36C22.907 66.6013 22.7063 67.5487 22.305 68.202C21.913 68.8553 21.269 69.182 20.373 69.182C20.1583 69.182 19.967 69.1587 19.799 69.112C19.631 69.0747 19.4723 69.0187 19.323 68.944V71.59ZM25.8582 67.894C26.1288 68.0433 26.4182 68.118 26.7262 68.118C26.9595 68.118 27.1648 68.0713 27.3422 67.978C27.5195 67.8847 27.6688 67.7307 27.7902 67.516C27.9208 67.3013 28.0188 67.0167 28.0842 66.662C28.1495 66.3073 28.1822 65.8687 28.1822 65.346C28.1822 64.338 28.0515 63.6193 27.7902 63.19C27.5382 62.7513 27.1322 62.532 26.5722 62.532C26.4695 62.532 26.3575 62.5413 26.2362 62.56C26.1148 62.5693 25.9888 62.5927 25.8582 62.63V67.894ZM25.8582 71.59H24.6542V61.846C24.9155 61.734 25.2095 61.6453 25.5362 61.58C25.8722 61.5053 26.2128 61.468 26.5582 61.468C27.0715 61.468 27.5102 61.5567 27.8742 61.734C28.2475 61.9113 28.5462 62.168 28.7702 62.504C29.0035 62.8307 29.1715 63.2367 29.2742 63.722C29.3862 64.198 29.4422 64.744 29.4422 65.36C29.4422 66.6013 29.2415 67.5487 28.8402 68.202C28.4482 68.8553 27.8042 69.182 26.9082 69.182C26.6935 69.182 26.5022 69.1587 26.3342 69.112C26.1662 69.0747 26.0075 69.0187 25.8582 68.944V71.59ZM35.9213 65.332C35.9213 65.9107 35.87 66.438 35.7673 66.914C35.6647 67.3807 35.506 67.782 35.2913 68.118C35.086 68.454 34.82 68.7153 34.4933 68.902C34.176 69.0887 33.798 69.182 33.3593 69.182C32.9207 69.182 32.538 69.0887 32.2113 68.902C31.8847 68.7153 31.614 68.454 31.3993 68.118C31.194 67.782 31.04 67.3807 30.9373 66.914C30.8347 66.438 30.7833 65.9107 30.7833 65.332C30.7833 64.7627 30.8347 64.24 30.9373 63.764C31.04 63.288 31.194 62.882 31.3993 62.546C31.614 62.2007 31.8847 61.9347 32.2113 61.748C32.538 61.5613 32.9207 61.468 33.3593 61.468C33.798 61.468 34.176 61.5613 34.4933 61.748C34.82 61.9347 35.086 62.2007 35.2913 62.546C35.506 62.882 35.6647 63.288 35.7673 63.764C35.87 64.24 35.9213 64.7627 35.9213 65.332ZM34.6613 65.332C34.6613 64.9213 34.638 64.548 34.5913 64.212C34.5447 63.8667 34.47 63.5727 34.3673 63.33C34.2647 63.078 34.1293 62.8867 33.9613 62.756C33.7933 62.616 33.5927 62.546 33.3593 62.546C33.1167 62.546 32.9113 62.616 32.7433 62.756C32.5847 62.8867 32.4493 63.078 32.3373 63.33C32.2347 63.5727 32.16 63.8667 32.1133 64.212C32.0667 64.548 32.0433 64.9213 32.0433 65.332C32.0433 65.7427 32.0667 66.1207 32.1133 66.466C32.16 66.802 32.2347 67.0913 32.3373 67.334C32.4493 67.5767 32.5847 67.768 32.7433 67.908C32.9113 68.0387 33.1167 68.104 33.3593 68.104C33.5927 68.104 33.7933 68.0387 33.9613 67.908C34.1293 67.768 34.2647 67.5767 34.3673 67.334C34.47 67.0913 34.5447 66.802 34.5913 66.466C34.638 66.1207 34.6613 65.7427 34.6613 65.332ZM38.8878 69H37.6838V61.65H38.8878V69ZM38.2858 60.348C38.0711 60.348 37.8845 60.278 37.7258 60.138C37.5765 59.9887 37.5018 59.7927 37.5018 59.55C37.5018 59.3073 37.5765 59.116 37.7258 58.976C37.8845 58.8267 38.0711 58.752 38.2858 58.752C38.5005 58.752 38.6825 58.8267 38.8318 58.976C38.9905 59.116 39.0698 59.3073 39.0698 59.55C39.0698 59.7927 38.9905 59.9887 38.8318 60.138C38.6825 60.278 38.5005 60.348 38.2858 60.348ZM41.0744 61.86C41.4198 61.7573 41.7931 61.6733 42.1944 61.608C42.5958 61.5333 42.9644 61.496 43.3004 61.496C43.6644 61.496 43.9958 61.5473 44.2944 61.65C44.5931 61.7433 44.8451 61.9067 45.0504 62.14C45.2651 62.3733 45.4284 62.6907 45.5404 63.092C45.6618 63.484 45.7224 63.974 45.7224 64.562V69H44.5184V64.66C44.5184 63.932 44.4251 63.4 44.2384 63.064C44.0518 62.728 43.7018 62.56 43.1884 62.56C42.9178 62.56 42.6144 62.6067 42.2784 62.7V69H41.0744V61.86ZM48.9483 61.65H50.7963V62.686H48.9483V66.732C48.9483 67.236 49.037 67.5907 49.2143 67.796C49.401 67.992 49.6483 68.09 49.9563 68.09C50.115 68.09 50.2643 68.0667 50.4043 68.02C50.5537 67.9733 50.6797 67.9173 50.7823 67.852L51.0203 68.818C50.6377 69.042 50.2317 69.154 49.8023 69.154C49.1117 69.154 48.5937 68.9627 48.2483 68.58C47.9123 68.188 47.7443 67.544 47.7443 66.648V59.676L48.9483 59.466V61.65ZM52.3264 61.86C52.653 61.7573 53.0077 61.6733 53.3904 61.608C53.773 61.5333 54.123 61.496 54.4404 61.496C54.767 61.496 55.061 61.538 55.3224 61.622C55.593 61.706 55.831 61.846 56.0364 62.042C56.279 61.8833 56.5404 61.7527 56.8204 61.65C57.1004 61.5473 57.4084 61.496 57.7444 61.496C58.0804 61.496 58.3837 61.5473 58.6544 61.65C58.9344 61.7433 59.1724 61.9067 59.3684 62.14C59.5644 62.3733 59.7184 62.6907 59.8304 63.092C59.9424 63.484 59.9984 63.974 59.9984 64.562V69H58.7944V64.66C58.7944 63.932 58.7104 63.4 58.5424 63.064C58.3744 62.728 58.057 62.56 57.5904 62.56C57.413 62.56 57.231 62.5927 57.0444 62.658C56.867 62.7233 56.699 62.812 56.5404 62.924C56.615 63.1387 56.671 63.3813 56.7084 63.652C56.7457 63.9227 56.7644 64.226 56.7644 64.562V69H55.5604V64.66C55.5604 63.932 55.4764 63.4 55.3084 63.064C55.1404 62.728 54.823 62.56 54.3564 62.56C54.1137 62.56 53.8384 62.6067 53.5304 62.7V69H52.3264V61.86ZM62.9278 65.682C62.9371 66.0367 62.9698 66.3633 63.0258 66.662C63.0818 66.9513 63.1704 67.208 63.2918 67.432C63.4224 67.6467 63.5904 67.8147 63.7958 67.936C64.0104 68.0573 64.2811 68.118 64.6078 68.118C64.8784 68.118 65.1258 68.0807 65.3498 68.006C65.5831 67.922 65.7511 67.852 65.8538 67.796L66.0778 68.762C65.9564 68.846 65.7511 68.9347 65.4618 69.028C65.1818 69.1307 64.8458 69.182 64.4538 69.182C63.9404 69.182 63.5064 69.0887 63.1518 68.902C62.8064 68.7153 62.5218 68.454 62.2978 68.118C62.0831 67.782 61.9291 67.3807 61.8358 66.914C61.7424 66.4473 61.6958 65.934 61.6958 65.374C61.6958 64.0207 61.9198 63.0313 62.3678 62.406C62.8158 61.7807 63.4084 61.468 64.1458 61.468C64.9764 61.468 65.5644 61.7807 65.9098 62.406C66.2551 63.0313 66.4278 63.9087 66.4278 65.038C66.4278 65.1407 66.4278 65.248 66.4278 65.36C66.4278 65.4627 66.4231 65.57 66.4138 65.682H62.9278ZM64.1458 62.49C63.7444 62.49 63.4504 62.6907 63.2638 63.092C63.0864 63.4933 62.9791 64.03 62.9418 64.702H65.1678C65.1678 64.0207 65.0978 63.484 64.9578 63.092C64.8178 62.6907 64.5471 62.49 64.1458 62.49ZM68.1994 61.86C68.5448 61.7573 68.9181 61.6733 69.3194 61.608C69.7208 61.5333 70.0894 61.496 70.4254 61.496C70.7894 61.496 71.1208 61.5473 71.4194 61.65C71.7181 61.7433 71.9701 61.9067 72.1754 62.14C72.3901 62.3733 72.5534 62.6907 72.6654 63.092C72.7868 63.484 72.8474 63.974 72.8474 64.562V69H71.6434V64.66C71.6434 63.932 71.5501 63.4 71.3634 63.064C71.1768 62.728 70.8268 62.56 70.3134 62.56C70.0428 62.56 69.7394 62.6067 69.4034 62.7V69H68.1994V61.86ZM76.0733 61.65H77.9213V62.686H76.0733V66.732C76.0733 67.236 76.162 67.5907 76.3393 67.796C76.526 67.992 76.7733 68.09 77.0813 68.09C77.24 68.09 77.3893 68.0667 77.5293 68.02C77.6787 67.9733 77.8047 67.9173 77.9073 67.852L78.1453 68.818C77.7627 69.042 77.3567 69.154 76.9273 69.154C76.2367 69.154 75.7187 68.9627 75.3733 68.58C75.0373 68.188 74.8693 67.544 74.8693 66.648V59.676L76.0733 59.466V61.65ZM80.4734 68.146C80.828 68.146 81.094 68.048 81.2714 67.852C81.458 67.6467 81.5514 67.3807 81.5514 67.054C81.5514 66.8487 81.514 66.676 81.4394 66.536C81.3647 66.3867 81.2667 66.256 81.1454 66.144C81.024 66.032 80.884 65.934 80.7254 65.85C80.5667 65.7567 80.408 65.6587 80.2494 65.556C80.0907 65.4627 79.9367 65.3553 79.7874 65.234C79.638 65.1033 79.5027 64.9587 79.3814 64.8C79.2694 64.632 79.176 64.4453 79.1014 64.24C79.036 64.0253 79.0034 63.778 79.0034 63.498C79.0034 62.8913 79.19 62.4013 79.5634 62.028C79.946 61.6547 80.4594 61.468 81.1034 61.468C81.374 61.468 81.6307 61.5053 81.8734 61.58C82.116 61.6453 82.3167 61.72 82.4754 61.804L82.2094 62.77C82.0414 62.6767 81.8734 62.6067 81.7054 62.56C81.5374 62.5133 81.3554 62.49 81.1594 62.49C80.8607 62.49 80.6227 62.5787 80.4454 62.756C80.268 62.924 80.1794 63.1713 80.1794 63.498C80.1794 63.6847 80.212 63.848 80.2774 63.988C80.3427 64.1187 80.4267 64.24 80.5294 64.352C80.6414 64.4547 80.7627 64.5527 80.8934 64.646C81.0334 64.7393 81.178 64.828 81.3274 64.912C81.5047 65.0147 81.6774 65.1267 81.8454 65.248C82.0227 65.3693 82.1767 65.514 82.3074 65.682C82.4474 65.8407 82.5594 66.032 82.6434 66.256C82.7274 66.4707 82.7694 66.732 82.7694 67.04C82.7694 67.684 82.578 68.202 82.1954 68.594C81.822 68.986 81.2714 69.182 80.5434 69.182C80.17 69.182 79.834 69.1307 79.5354 69.028C79.2367 68.9253 79.0127 68.832 78.8634 68.748L79.1154 67.754C79.2554 67.8287 79.442 67.9127 79.6754 68.006C79.918 68.0993 80.184 68.146 80.4734 68.146Z" fill="white"/>
</svg>
