<svg width="23" height="23" viewBox="0 0 23 23" fill="currentColor" xmlns="http://www.w3.org/2000/svg">
<path d="M22.675 3.30523C22.5487 2.56077 22.194 1.87402 21.6601 1.34009C21.1261 0.806165 20.4394 0.451488 19.6949 0.325191C16.1144 -0.281873 9.36794 -0.55942 4.40516 4.40546C-0.557619 9.37035 -0.282277 16.1155 0.324801 19.6949C0.451437 20.4401 0.806935 21.1274 1.34195 21.6614C1.87696 22.1954 2.56495 22.5497 3.31043 22.6749C4.56456 22.8888 5.83437 22.9975 7.1066 23C10.6551 23 15.0738 22.1154 18.5946 18.5946C23.5585 13.632 23.2821 6.88459 22.675 3.30523ZM3.60015 20.9322C3.21734 20.8671 2.86423 20.6847 2.58966 20.4101C2.31509 20.1355 2.13263 19.7824 2.06752 19.3996C1.76405 17.6885 1.68562 15.9451 1.8342 14.2136L8.78629 21.1655C7.0548 21.3141 5.31131 21.2357 3.60015 20.9322ZM15.6621 8.58857L14.0764 10.1731L14.7775 10.8742C14.8649 10.9551 14.9351 11.0528 14.9838 11.1614C15.0325 11.2701 15.0588 11.3875 15.0611 11.5065C15.0634 11.6256 15.0416 11.7439 14.9971 11.8543C14.9525 11.9648 14.8862 12.0651 14.8019 12.1493C14.7177 12.2335 14.6173 12.2997 14.5068 12.3442C14.3963 12.3886 14.278 12.4103 14.1589 12.4079C14.0398 12.4055 13.9225 12.3791 13.8139 12.3303C13.7053 12.2815 13.6076 12.2112 13.5268 12.1237L12.8268 11.4237L11.4236 12.827L12.1247 13.528C12.2122 13.6088 12.2824 13.7065 12.3313 13.8151C12.3801 13.9237 12.4065 14.041 12.4089 14.1601C12.4113 14.2792 12.3896 14.3975 12.3452 14.508C12.3007 14.6185 12.2344 14.7188 12.1503 14.8031C12.0661 14.8873 11.9658 14.9537 11.8553 14.9983C11.7449 15.0428 11.6266 15.0646 11.5075 15.0623C11.3884 15.06 11.271 15.0337 11.1624 14.985C11.0537 14.9362 10.956 14.8661 10.8751 14.7786L10.173 14.0765L8.58725 15.6621C8.50593 15.7477 8.40828 15.8162 8.30008 15.8635C8.19188 15.9107 8.07531 15.9359 7.95724 15.9374C7.83917 15.9389 7.722 15.9168 7.61262 15.8723C7.50324 15.8278 7.40388 15.7619 7.32039 15.6784C7.23689 15.5949 7.17096 15.4955 7.12647 15.3861C7.08199 15.2768 7.05984 15.1596 7.06136 15.0415C7.06287 14.9235 7.088 14.8069 7.13527 14.6987C7.18255 14.5905 7.251 14.4929 7.33661 14.4115L8.92341 12.827L8.22234 12.1259C8.06723 11.958 7.98315 11.7365 7.98774 11.508C7.99233 11.2794 8.08522 11.0615 8.24694 10.8999C8.40866 10.7383 8.62666 10.6456 8.85523 10.6413C9.0838 10.6369 9.30519 10.7211 9.47299 10.8764L10.1741 11.5775L11.5762 10.1731L10.8751 9.47208C10.7199 9.30428 10.6356 9.08289 10.64 8.85433C10.6444 8.62577 10.7371 8.40777 10.8986 8.24605C11.0602 8.08433 11.2781 7.99144 11.5067 7.98686C11.7353 7.98227 11.9567 8.06635 12.1247 8.22146L12.8268 8.92362L14.4125 7.33795C14.4939 7.25235 14.5915 7.18389 14.6997 7.13662C14.8079 7.08935 14.9245 7.06422 15.0426 7.06271C15.1606 7.06119 15.2778 7.08333 15.3872 7.12782C15.4966 7.17231 15.5959 7.23824 15.6794 7.32173C15.7629 7.40522 15.8288 7.50458 15.8733 7.61396C15.9178 7.72333 15.94 7.8405 15.9384 7.95857C15.9369 8.07664 15.9118 8.1932 15.8645 8.3014C15.8173 8.4096 15.7488 8.50724 15.6632 8.58857H15.6621ZM21.1656 8.7865L14.2135 1.83456C14.7399 1.78591 15.2883 1.75826 15.8622 1.75826C17.0483 1.76245 18.232 1.86601 19.4008 2.06788C19.7834 2.13319 20.1362 2.31573 20.4106 2.59028C20.6849 2.86483 20.8672 3.21782 20.9323 3.60047C21.2357 5.31159 21.3142 7.05504 21.1656 8.7865Z" fill="white"/>
</svg>
