<svg width="51" height="72" viewBox="0 0 51 72" fill="none" xmlns="http://www.w3.org/2000/svg">
<path d="M16.686 64.156C16.686 64.912 16.616 65.6027 16.476 66.228C16.3453 66.844 16.1353 67.376 15.846 67.824C15.566 68.2627 15.2067 68.6033 14.768 68.846C14.3387 69.0887 13.83 69.21 13.242 69.21C12.654 69.21 12.1407 69.0887 11.702 68.846C11.2727 68.6033 10.9133 68.2627 10.624 67.824C10.344 67.376 10.134 66.844 9.994 66.228C9.854 65.6027 9.784 64.912 9.784 64.156C9.784 63.4 9.854 62.7093 9.994 62.084C10.134 61.4587 10.344 60.9267 10.624 60.488C10.9133 60.04 11.2727 59.6947 11.702 59.452C12.1407 59.2 12.654 59.074 13.242 59.074C13.83 59.074 14.3387 59.2 14.768 59.452C15.2067 59.6947 15.566 60.04 15.846 60.488C16.1353 60.9267 16.3453 61.4587 16.476 62.084C16.616 62.7093 16.686 63.4 16.686 64.156ZM15.342 64.156C15.342 63.568 15.3047 63.0313 15.23 62.546C15.1553 62.0607 15.034 61.6453 14.866 61.3C14.698 60.9453 14.4787 60.67 14.208 60.474C13.9467 60.278 13.6247 60.18 13.242 60.18C12.8593 60.18 12.5327 60.278 12.262 60.474C12.0007 60.67 11.786 60.9453 11.618 61.3C11.45 61.6453 11.324 62.0607 11.24 62.546C11.1653 63.0313 11.128 63.568 11.128 64.156C11.128 64.744 11.1653 65.2807 11.24 65.766C11.324 66.2513 11.45 66.6667 11.618 67.012C11.786 67.3573 12.0007 67.628 12.262 67.824C12.5327 68.0107 12.8593 68.104 13.242 68.104C13.6247 68.104 13.9467 68.0107 14.208 67.824C14.4787 67.628 14.698 67.3573 14.866 67.012C15.034 66.6667 15.1553 66.2513 15.23 65.766C15.3047 65.2807 15.342 64.744 15.342 64.156ZM21.7466 62.742C21.4479 62.6113 21.1119 62.546 20.7386 62.546C20.3932 62.546 20.0712 62.6067 19.7726 62.728V69H18.5686V61.972C18.8392 61.8413 19.1472 61.734 19.4926 61.65C19.8472 61.5567 20.2346 61.51 20.6546 61.51C20.8786 61.51 21.1026 61.524 21.3266 61.552C21.5506 61.58 21.7606 61.6313 21.9566 61.706L21.7466 62.742ZM26.1896 62.756C25.9189 62.6067 25.6296 62.532 25.3216 62.532C25.0883 62.532 24.8829 62.5787 24.7056 62.672C24.5283 62.7653 24.3743 62.9193 24.2436 63.134C24.1223 63.3487 24.0289 63.6333 23.9636 63.988C23.8983 64.3427 23.8656 64.7813 23.8656 65.304C23.8656 66.312 23.9963 67.0353 24.2576 67.474C24.5283 67.9033 24.9343 68.118 25.4756 68.118C25.5783 68.118 25.6903 68.1133 25.8116 68.104C25.9329 68.0853 26.0589 68.0573 26.1896 68.02V62.756ZM26.1896 58.346L27.3936 58.136V68.804C27.1323 68.916 26.8336 69.0047 26.4976 69.07C26.1616 69.1447 25.8209 69.182 25.4756 69.182C24.4676 69.182 23.7349 68.86 23.2776 68.216C22.8296 67.572 22.6056 66.6013 22.6056 65.304C22.6056 64.716 22.6523 64.1887 22.7456 63.722C22.8483 63.246 23.0023 62.8447 23.2076 62.518C23.4223 62.182 23.6929 61.9253 24.0196 61.748C24.3463 61.5613 24.7336 61.468 25.1816 61.468C25.3963 61.468 25.5783 61.4913 25.7276 61.538C25.8863 61.5753 26.0403 61.6313 26.1896 61.706V58.346ZM30.3868 65.682C30.3961 66.0367 30.4288 66.3633 30.4848 66.662C30.5408 66.9513 30.6294 67.208 30.7508 67.432C30.8814 67.6467 31.0494 67.8147 31.2548 67.936C31.4694 68.0573 31.7401 68.118 32.0667 68.118C32.3374 68.118 32.5848 68.0807 32.8088 68.006C33.0421 67.922 33.2101 67.852 33.3128 67.796L33.5368 68.762C33.4154 68.846 33.2101 68.9347 32.9208 69.028C32.6408 69.1307 32.3048 69.182 31.9128 69.182C31.3994 69.182 30.9654 69.0887 30.6108 68.902C30.2654 68.7153 29.9808 68.454 29.7568 68.118C29.5421 67.782 29.3881 67.3807 29.2948 66.914C29.2014 66.4473 29.1548 65.934 29.1548 65.374C29.1548 64.0207 29.3788 63.0313 29.8268 62.406C30.2748 61.7807 30.8674 61.468 31.6048 61.468C32.4354 61.468 33.0234 61.7807 33.3688 62.406C33.7141 63.0313 33.8868 63.9087 33.8868 65.038C33.8868 65.1407 33.8868 65.248 33.8868 65.36C33.8868 65.4627 33.8821 65.57 33.8728 65.682H30.3868ZM31.6048 62.49C31.2034 62.49 30.9094 62.6907 30.7228 63.092C30.5454 63.4933 30.4381 64.03 30.4008 64.702H32.6268C32.6268 64.0207 32.5568 63.484 32.4168 63.092C32.2768 62.6907 32.0061 62.49 31.6048 62.49ZM38.8364 62.742C38.5377 62.6113 38.2017 62.546 37.8284 62.546C37.4831 62.546 37.1611 62.6067 36.8624 62.728V69H35.6584V61.972C35.9291 61.8413 36.2371 61.734 36.5824 61.65C36.9371 61.5567 37.3244 61.51 37.7444 61.51C37.9684 61.51 38.1924 61.524 38.4164 61.552C38.6404 61.58 38.8504 61.6313 39.0464 61.706L38.8364 62.742ZM41.2742 68.146C41.6288 68.146 41.8948 68.048 42.0722 67.852C42.2588 67.6467 42.3522 67.3807 42.3522 67.054C42.3522 66.8487 42.3148 66.676 42.2402 66.536C42.1655 66.3867 42.0675 66.256 41.9462 66.144C41.8248 66.032 41.6848 65.934 41.5262 65.85C41.3675 65.7567 41.2088 65.6587 41.0502 65.556C40.8915 65.4627 40.7375 65.3553 40.5882 65.234C40.4388 65.1033 40.3035 64.9587 40.1822 64.8C40.0702 64.632 39.9768 64.4453 39.9022 64.24C39.8368 64.0253 39.8042 63.778 39.8042 63.498C39.8042 62.8913 39.9908 62.4013 40.3642 62.028C40.7468 61.6547 41.2602 61.468 41.9042 61.468C42.1748 61.468 42.4315 61.5053 42.6742 61.58C42.9168 61.6453 43.1175 61.72 43.2762 61.804L43.0102 62.77C42.8422 62.6767 42.6742 62.6067 42.5062 62.56C42.3382 62.5133 42.1562 62.49 41.9602 62.49C41.6615 62.49 41.4235 62.5787 41.2462 62.756C41.0688 62.924 40.9802 63.1713 40.9802 63.498C40.9802 63.6847 41.0128 63.848 41.0782 63.988C41.1435 64.1187 41.2275 64.24 41.3302 64.352C41.4422 64.4547 41.5635 64.5527 41.6942 64.646C41.8342 64.7393 41.9788 64.828 42.1282 64.912C42.3055 65.0147 42.4782 65.1267 42.6462 65.248C42.8235 65.3693 42.9775 65.514 43.1082 65.682C43.2482 65.8407 43.3602 66.032 43.4442 66.256C43.5282 66.4707 43.5702 66.732 43.5702 67.04C43.5702 67.684 43.3788 68.202 42.9962 68.594C42.6228 68.986 42.0722 69.182 41.3442 69.182C40.9708 69.182 40.6348 69.1307 40.3362 69.028C40.0375 68.9253 39.8135 68.832 39.6642 68.748L39.9162 67.754C40.0562 67.8287 40.2428 67.9127 40.4762 68.006C40.7188 68.0993 40.9848 68.146 41.2742 68.146Z" fill="white"/>
<path d="M15.1757 0H35.41C39.4348 0 43.2948 1.59886 46.1408 4.44486C48.9868 7.29085 50.5857 11.1509 50.5857 15.1757V35.41C50.5857 39.4348 48.9868 43.2948 46.1408 46.1408C43.2948 48.9868 39.4348 50.5857 35.41 50.5857H15.1757C11.1509 50.5857 7.29085 48.9868 4.44486 46.1408C1.59886 43.2948 0 39.4348 0 35.41L0 15.1757C0 11.1509 1.59886 7.29085 4.44486 4.44486C7.29085 1.59886 11.1509 0 15.1757 0ZM15.1757 5.05857C12.4925 5.05857 9.91914 6.12448 8.02181 8.02181C6.12448 9.91914 5.05857 12.4925 5.05857 15.1757V35.41C5.05857 38.0932 6.12448 40.6665 8.02181 42.5639C9.91914 44.4612 12.4925 45.5271 15.1757 45.5271H35.41C38.0932 45.5271 40.6665 44.4612 42.5639 42.5639C44.4612 40.6665 45.5271 38.0932 45.5271 35.41V15.1757C45.5271 12.4925 44.4612 9.91914 42.5639 8.02181C40.6665 6.12448 38.0932 5.05857 35.41 5.05857H15.1757ZM30.3514 22.7635H37.9392C38.6101 22.7635 39.2534 23.03 39.7277 23.5044C40.202 23.9787 40.4685 24.622 40.4685 25.2928C40.4685 25.9636 40.202 26.607 39.7277 27.0813C39.2534 27.5556 38.6101 27.8221 37.9392 27.8221H30.3514C29.6806 27.8221 29.0373 27.5556 28.5629 27.0813C28.0886 26.607 27.8221 25.9636 27.8221 25.2928C27.8221 24.622 28.0886 23.9787 28.5629 23.5044C29.0373 23.03 29.6806 22.7635 30.3514 22.7635ZM25.2928 32.8807H37.9392C38.6101 32.8807 39.2534 33.1472 39.7277 33.6215C40.202 34.0958 40.4685 34.7392 40.4685 35.41C40.4685 36.0808 40.202 36.7241 39.7277 37.1984C39.2534 37.6728 38.6101 37.9392 37.9392 37.9392H25.2928C24.622 37.9392 23.9787 37.6728 23.5044 37.1984C23.03 36.7241 22.7635 36.0808 22.7635 35.41C22.7635 34.7392 23.03 34.0958 23.5044 33.6215C23.9787 33.1472 24.622 32.8807 25.2928 32.8807ZM25.2928 12.6464H37.9392C38.6101 12.6464 39.2534 12.9129 39.7277 13.3872C40.202 13.8616 40.4685 14.5049 40.4685 15.1757C40.4685 15.8465 40.202 16.4898 39.7277 16.9642C39.2534 17.4385 38.6101 17.705 37.9392 17.705H25.2928C24.622 17.705 23.9787 17.4385 23.5044 16.9642C23.03 16.4898 22.7635 15.8465 22.7635 15.1757C22.7635 14.5049 23.03 13.8616 23.5044 13.3872C23.9787 12.9129 24.622 12.6464 25.2928 12.6464ZM14.7407 25.9074L20.1078 20.5378C20.5824 20.0635 21.226 19.7972 21.8969 19.7975C22.2291 19.7976 22.5581 19.8631 22.8649 19.9904C23.1718 20.1176 23.4506 20.304 23.6855 20.539C23.9203 20.774 24.1065 21.053 24.2336 21.36C24.3606 21.6669 24.4259 21.9959 24.4258 22.3281C24.4257 22.6604 24.3601 22.9893 24.2329 23.2962C24.1056 23.6031 23.9192 23.8819 23.6842 24.1167L16.5314 31.2695C16.2965 31.5047 16.0175 31.6912 15.7105 31.8185C15.4034 31.9458 15.0743 32.0113 14.7419 32.0113C14.4095 32.0113 14.0804 31.9458 13.7734 31.8185C13.4663 31.6912 13.1874 31.5047 12.9525 31.2695L9.37605 27.6956C8.91532 27.2186 8.66039 26.5797 8.66615 25.9165C8.67191 25.2534 8.93791 24.619 9.40686 24.1501C9.87581 23.6811 10.5102 23.4151 11.1734 23.4093C11.8365 23.4036 12.4754 23.6585 12.9525 24.1192L14.7407 25.9074Z" fill="white"/>
</svg>
