<svg width="30" height="27" viewBox="0 0 30 27" fill="none" xmlns="http://www.w3.org/2000/svg">
<path d="M11.6353 26.7133C10.7497 26.7133 9.90037 26.3615 9.27416 25.7353C8.64794 25.1091 8.29614 24.2598 8.29614 23.3742C8.29614 22.4886 8.64794 21.6392 9.27416 21.013C9.90037 20.3868 10.7497 20.035 11.6353 20.035C12.5209 20.035 13.3702 20.3868 13.9965 21.013C14.6227 21.6392 14.9745 22.4886 14.9745 23.3742C14.9745 24.2598 14.6227 25.1091 13.9965 25.7353C13.3702 26.3615 12.5209 26.7133 11.6353 26.7133ZM23.3224 26.7133C22.4368 26.7133 21.5875 26.3615 20.9612 25.7353C20.335 25.1091 19.9832 24.2598 19.9832 23.3742C19.9832 22.4886 20.335 21.6392 20.9612 21.013C21.5875 20.3868 22.4368 20.035 23.3224 20.035C24.208 20.035 25.0573 20.3868 25.6835 21.013C26.3097 21.6392 26.6616 22.4886 26.6616 23.3742C26.6616 24.2598 26.3097 25.1091 25.6835 25.7353C25.0573 26.3615 24.208 26.7133 23.3224 26.7133ZM1.55436 3.21061C1.13757 3.19717 0.742345 3.02215 0.452266 2.72256C0.162188 2.42298 0 2.02231 0 1.6053C0 1.1883 0.162188 0.787634 0.452266 0.488048C0.742345 0.188463 1.13757 0.0134432 1.55436 0L3.47605 0C4.98202 0 6.28429 1.04516 6.61153 2.51439L8.70352 11.9342C9.03076 13.4034 10.333 14.4486 11.839 14.4486H24.3809L26.7884 4.81508H11.1862C10.7733 4.79624 10.3836 4.61897 10.0981 4.32013C9.81259 4.0213 9.65326 3.62391 9.65326 3.21061C9.65326 2.79731 9.81259 2.39992 10.0981 2.10108C10.3836 1.80225 10.7733 1.62498 11.1862 1.60614H26.7884C27.2765 1.606 27.7582 1.71713 28.1969 1.9311C28.6356 2.14506 29.0197 2.45623 29.32 2.84094C29.6204 3.22564 29.8291 3.67377 29.9303 4.15125C30.0314 4.62872 30.0224 5.12298 29.9039 5.59644L27.4963 15.2266C27.3228 15.9215 26.9219 16.5384 26.3573 16.9791C25.7928 17.4199 25.0971 17.6593 24.3809 17.6592H11.839C10.3778 17.6594 8.96017 17.1612 7.82033 16.2469C6.68049 15.3326 5.88658 14.0569 5.56971 12.6304L3.47605 3.21061H1.55436Z" fill="black"/>
</svg>
