<svg width="25" height="25" viewBox="0 0 25 25" fill="none" xmlns="http://www.w3.org/2000/svg">
<path fill-rule="evenodd" clip-rule="evenodd" d="M12.5002 2.08334C18.2533 2.08334 22.9168 6.74689 22.9168 12.5C22.9168 18.2531 18.2533 22.9167 12.5002 22.9167C6.74704 22.9167 2.0835 18.2531 2.0835 12.5C2.0835 6.74689 6.74704 2.08334 12.5002 2.08334ZM13.8064 16.0698H11.1939L9.98141 17.7396L10.9397 20.6875C11.9707 20.884 13.0296 20.884 14.0606 20.6875L15.0189 17.7396L13.8064 16.0698ZM8.06995 18.5979H6.81995C7.31505 19.0598 7.86458 19.4596 8.45641 19.7886L8.06995 18.5979ZM18.1804 18.5979H16.9304L16.5439 19.7886C17.1354 19.4596 17.6856 19.0597 18.1804 18.5979ZM6.73975 11.7229L4.23141 13.5458C4.36308 14.5874 4.69034 15.5946 5.196 16.5146H8.296L9.5085 14.8458L8.7012 12.3604L6.73975 11.7229ZM18.2606 11.7229L16.2991 12.3604L15.4918 14.8448L16.7043 16.5146H19.8043C20.3101 15.5943 20.6374 14.5867 20.7689 13.5448L18.2606 11.7229ZM12.5002 10.6625L10.7522 11.9323L11.42 13.9865H13.5804L14.247 11.9323L12.5002 10.6625ZM4.94495 8.98022C4.65902 9.59477 4.44914 10.2419 4.31995 10.9073L5.33141 10.1708L4.94495 8.98022ZM20.0554 8.98022L19.6689 10.1708L20.6814 10.9063C20.5522 10.2409 20.3423 9.59373 20.0564 8.97918L20.0554 8.98022ZM8.95121 4.95834C8.0009 5.40615 7.14383 6.0296 6.42516 6.79584L7.3835 9.74168L9.346 10.3792L11.4585 8.84376V6.78126L8.95121 4.95834ZM16.0502 4.95834L13.5418 6.78126V8.84376L15.6543 10.3792L17.6179 9.74168L18.5752 6.79584C17.8568 6.0297 17.0001 5.40626 16.0502 4.95834ZM12.5002 4.16668C12.271 4.16668 12.0453 4.1757 11.8231 4.19376L11.4887 4.22709L12.5002 4.96251L13.5116 4.22709C13.176 4.18646 12.8382 4.16628 12.5002 4.16668Z" fill="black"/>
</svg>
